Anal Attack # 9 DVD

Category 	All Sex, Anal
Starring 	Karina, Lisa Sparkle, Tanya, Julia, Lucy, Bernadette, Nikoletta

Studio 	Evil Angel
Discs 	1
Release Date 	Jan 12, 2012
 
http://bayimg.com/CAlndaAdO
 
http://bayimg.com/CALNGaAdO
 
http://bayimg.com/cALNHAAdo

General
Complete name                    : C:\Downloads\Anal Attack # 9 DVD\dvd\Anal Attack # 9 DVD.avi
Format                           : AVI
Format/Info                      : Audio Video Interleave
Format profile                   : OpenDML
File size                        : 1.78 GiB
Duration                         : 3h 10mn
Overall bit rate                 : 1 341 Kbps
Writing application              : MEncoder SVN-r30881(20100311-gcc4.3.3)
Writing library                  : MPlayer

Video
ID                               : 0
Format                           : MPEG-4 Visual
Format profile                   : Advanced Simple@L5
Format settings, BVOP            : 2
Format settings, QPel            : No
Format settings, GMC             : No warppoints
Format settings, Matrix          : Default (H.263)
Codec ID                         : XVID
Codec ID/Hint                    : XviD
Duration                         : 3h 10mn
Bit rate                         : 34.3 Kbps
Width                            : 720 pixels
Height                           : 480 pixels
Display aspect ratio             : 3:2
Frame rate                       : 25.000 fps
Standard                         : NTSC
Color space                      : YUV
Chroma subsampling               : 4:2:0
Bit depth                        : 8 bits
Scan type                        : Progressive
Compression mode                 : Lossy
Bits/(Pixel*Frame)               : 0.004
Stream size                      : 46.7 MiB (3%)
Writing library                  : XviD 1.2.1 (UTC 2008-12-04)

Audio
ID                               : 1
Format                           : MPEG Audio
Codec ID                         : 55
Codec ID/Hint                    : MP3
Duration                         : 3h 10mn
Bit rate                         : 128 Kbps
Channel(s)                       : 2 channels
Sampling rate                    : 44.1 KHz
Compression mode                 : Lossy
Stream size                      : 174 MiB (10%)
Alignment                        : Aligned on interleaves

